<svg width="40" height="40" viewBox="0 0 40 40" fill="none" xmlns="http://www.w3.org/2000/svg">
<rect width="40" height="40" rx="4" fill="white" fill-opacity="0.2"/>
<g clip-path="url(#clip0_58_115)">
<path d="M23.3335 13.333H16.6668C14.8259 13.333 13.3335 14.8254 13.3335 16.6663V23.333C13.3335 25.174 14.8259 26.6663 16.6668 26.6663H23.3335C25.1744 26.6663 26.6668 25.174 26.6668 23.333V16.6663C26.6668 14.8254 25.1744 13.333 23.3335 13.333Z" stroke="white" stroke-width="1.5" stroke-linecap="round" stroke-linejoin="round"/>
<path d="M20 22.5C21.3807 22.5 22.5 21.3807 22.5 20C22.5 18.6193 21.3807 17.5 20 17.5C18.6193 17.5 17.5 18.6193 17.5 20C17.5 21.3807 18.6193 22.5 20 22.5Z" stroke="white" stroke-width="1.5" stroke-linecap="round" stroke-linejoin="round"/>
<path d="M23.75 16.25V16.251" stroke="white" stroke-width="1.5" stroke-linecap="round" stroke-linejoin="round"/>
</g>
<defs>
<clipPath id="clip0_58_115">
<rect width="20" height="20" fill="white" transform="translate(10 10)"/>
</clipPath>
</defs>
</svg>
