<svg width="40" height="40" viewBox="0 0 40 40" fill="none" xmlns="http://www.w3.org/2000/svg">
<g clip-path="url(#clip0_58_107)">
<path d="M20 23.333C22.7614 23.333 25 21.0944 25 18.333C25 15.5716 22.7614 13.333 20 13.333C17.2386 13.333 15 15.5716 15 18.333C15 21.0944 17.2386 23.333 20 23.333Z" stroke="#63FF00" stroke-width="3" stroke-linecap="round" stroke-linejoin="round"/>
<path d="M29.4282 27.7612L22.3565 34.8328C21.7315 35.4572 20.8841 35.808 20.0007 35.808C19.1172 35.808 18.2699 35.4572 17.6448 34.8328L10.5715 27.7612C8.70688 25.8965 7.43707 23.5207 6.92266 20.9343C6.40824 18.3479 6.67233 15.667 7.68152 13.2307C8.6907 10.7944 10.3997 8.71208 12.5923 7.24702C14.785 5.78197 17.3628 5 19.9998 5C22.6369 5 25.2147 5.78197 27.4074 7.24702C29.6 8.71208 31.309 10.7944 32.3182 13.2307C33.3274 15.667 33.5914 18.3479 33.077 20.9343C32.5626 23.5207 31.2928 25.8965 29.4282 27.7612V27.7612Z" stroke="#63FF00" stroke-width="3" stroke-linecap="round" stroke-linejoin="round"/>
</g>
<defs>
<clipPath id="clip0_58_107">
<rect width="40" height="40" fill="white"/>
</clipPath>
</defs>
</svg>
